<svg id="Layer_1" data-name="Layer 1" xmlns="http://www.w3.org/2000/svg" viewBox="0 0 1950 1080"><defs><style>.cls-1{fill:#e6e6e6;}.cls-2{fill:#ccc;}.cls-3{fill:#b3b3b3;}.cls-4{fill:#999;}.cls-5{font-size:36px;font-family:FiraSans-SemiBold, Fira Sans SemiBold;font-weight:600;}.cls-6{letter-spacing:-0.01em;}.cls-7{letter-spacing:-0.03em;}.cls-8{letter-spacing:-0.02em;}</style></defs><rect class="cls-1" width="1920" height="1080"/><rect class="cls-2" x="0.5" y="0.5" width="1279" height="719"/><path d="M1279,1V719H1V1H1279m1-1H0V720H1280V0Z"/><rect class="cls-3" x="0.5" y="0.5" width="639" height="479"/><path d="M639,1V479H1V1H639m1-1H0V480H640V0Z"/><rect class="cls-4" x="0.5" y="0.5" width="319" height="239"/><path d="M319,1V239H1V1H319m1-1H0V240H320V0Z"/><text class="cls-5" transform="translate(148.35 216.52)"><tspan class="cls-6">3</tspan><tspan x="18.18" y="0">20 x </tspan><tspan class="cls-7" x="93.2" y="0">2</tspan><tspan x="110.63" y="0">40</tspan></text><text class="cls-5" transform="translate(450.05 442.15)">640 x 480</text><text class="cls-5" transform="translate(1064.05 684.15)">1280 x <tspan class="cls-6" x="112.1" y="0">7</tspan><tspan x="128.37" y="0">20</tspan></text><text class="cls-5" transform="translate(1682.05 1033.15)">1<tspan class="cls-8" x="16.42" y="0">9</tspan><tspan x="35.53" y="0">20 x 1080</tspan></text></svg>